{"title":"Lucy 2014 720p TS NEW SOURCE SUBBED x264 Pimp4003","uid":10756396,"size":1377985810,"categoryP":"video","categoryS":"hd___movies","magnet":"?xt=urn:btih:9f2fa6933297dbe07dddf30a621d1b8c83a52a6f&amp;dn=Lucy+2014+720p+TS+NEW+SOURCE+SUBBED+x264+Pimp4003&amp;tr=udp%3A%2F%2Ftracker.openbittorrent.com%3A80&amp;tr=udp%3A%2F%2Fopen.demonii.com%3A1337&amp;tr=udp%3A%2F%2Ftracker.coppersurfer.tk%3A6969&amp;tr=udp%3A%2F%2Fexodus.desync.com%3A6969","seeders":32,"leechers":0,"uploader":"shawnmurthy","files":-1,"time":1407936815,"description":"[color=red][b]HAS HARD CODED SPANISH SUBTITLES......THIS IS NOT THE BEST VIDEO EVER BUT ITS NOT THE WORST EITHER....VIDEO WAS PRETTY BLURRY THROUGH OUT THE ENTIRE MOVIE...DID WHAT I COULD TO MAKE IT CLEAR AND WATCHABLE....AUDIO IS PRETTY GOOD FOR A TS.........ENJOY...PIMP4003 OUT[/b][/color]\n\nSOURCE VIDEO - SPECTRE\n\n[IMG]http://i.imgur.com/fW5GLTr.jpg[/IMG]\n\n[URL=http://istoreimg.com/i/53d4e26015e2a.html][IMG]http://istoreimg.com/upload/small/2014/07/27/53d4e26015dee.jpg[/IMG][/URL]\n\n[color=blue][b]REQUESTS, SCREENSHOTS, VIDEO INFO, SAMPLE AND FOR EXCLUSIVE RELEASES VISIT BELOW LINK[/b][/color]\n\nLucy 2014 720p TS NEW SOURCE SUBBED x264 Pimp4003\n\nENJOY\n\nPIMP4003\n\nVideo\nID                                       : 0\nFormat                                   : MPEG-4 Visual\nFormat profile                           : Simple@L3\nFormat settings, BVOP                    : No\nFormat settings, QPel                    : No\nFormat settings, GMC                     : No warppoints\nFormat settings, Matrix                  : Default (H.263)\nCodec ID                                 : XVID\nCodec ID/Hint                            : XviD\nDuration                                 : 1h 22mn\nBit rate                                 : 2 084 Kbps\nWidth                                    : 1 280 pixels\nHeight                                   : 720 pixels\nDisplay aspect ratio                     : 16:9\nFrame rate                               : 23.976 fps\nOriginal frame rate                      : 23.000 fps\nColor space                              : YUV\nChroma subsampling                       : 4:2:0\nBit depth                                : 8 bits\nScan type                                : Progressive\nCompression mode                         : Lossy\nBits/(Pixel*Frame)                       : 0.094\nStream size                              : 1.20 GiB (93%)\nWriting library                          : XviD 1.2.1 (UTC 2008-12-04)\n\nAudio\nID                                       : 1\nFormat                                   : MPEG Audio\nFormat version                           : Version 1\nFormat profile                           : Layer 3\nMode                                     : Joint stereo\nMode extension                           : MS Stereo\nCodec ID                                 : 55\nCodec ID/Hint                            : MP3\nDuration                                 : 1h 22mn\nBit rate mode                            : Constant\nBit rate                                 : 128 Kbps\nChannel(s)                               : 2 channels\nSampling rate                            : 48.0 KHz\nCompression mode                         : Lossy\nStream size                              : 75.5 MiB (6%)\nAlignment                                : Aligned on interleaves\nInterleave, duration                     : 24 ms (0.58 video frame)\nWriting library                          : LAME3.98.2\n &lt;a href=&quot;\nhttp://someimage.com/icPGSnQ&quot; rel=&quot;nofollow&quot; target=&quot;_NEW&quot;&gt;\nhttp://someimage.com/icPGSnQ&lt;/a&gt; &lt;a href=&quot;\nhttp://someimage.com/cZ6cQtJ&quot; rel=&quot;nofollow&quot; target=&quot;_NEW&quot;&gt;\nhttp://someimage.com/cZ6cQtJ&lt;/a&gt; &lt;a href=&quot;\nhttp://someimage.com/yYA0qDW&quot; rel=&quot;nofollow&quot; target=&quot;_NEW&quot;&gt;\nhttp://someimage.com/yYA0qDW&lt;/a&gt;\n","torrent":{"xt":"urn:btih:9f2fa6933297dbe07dddf30a621d1b8c83a52a6f","amp;dn":"Lucy+2014+720p+TS+NEW+SOURCE+SUBBED+x264+Pimp4003","amp;tr":["udp%3A%2F%2Ftracker.openbittorrent.com%3A80","udp%3A%2F%2Fopen.demonii.com%3A1337","udp%3A%2F%2Ftracker.coppersurfer.tk%3A6969","udp%3A%2F%2Fexodus.desync.com%3A6969"],"infoHash":"9f2fa6933297dbe07dddf30a621d1b8c83a52a6f","infoHashBuffer":{"type":"Buffer","data":[159,47,166,147,50,151,219,224,125,221,243,10,98,29,27,140,131,165,42,111]},"announce":[],"urlList":[]}}